<svg width="698" height="417" viewBox="0 0 698 417" fill="none" xmlns="http://www.w3.org/2000/svg">
<g clip-path="url(#clip0_1_336)">
<path d="M359.17 414.866C348.135 416.621 336.968 417.204 325.828 416.607C298.966 415.141 272.549 406.702 249.972 390.838C239.963 383.802 230.414 375.159 225.233 363.549C218.201 347.782 220.66 327.822 230.702 314.09C234.365 309.136 238.871 304.985 243.977 301.858C244.733 301.396 245.506 300.952 246.288 300.525C254.796 295.904 264.352 294.015 273.824 295.08C289.927 296.981 304.789 307.605 313.376 322.448C321.024 335.684 323.689 351.3 325.26 366.952C325.556 369.901 325.811 372.859 326.058 375.799C324.689 384.317 322.537 392.667 319.634 400.724C319.487 401.117 319.366 401.521 319.273 401.932C320.917 405.788 322.483 409.678 323.969 413.604C325.365 414.423 326.929 414.851 328.517 414.848H359.104L359.17 414.866Z" fill="#F2F2F2"/>
<path d="M323.335 415.621C323.133 415.719 322.914 415.772 322.692 415.777C322.47 415.783 322.249 415.74 322.042 415.653C321.836 415.565 321.647 415.434 321.488 415.267C321.329 415.1 321.202 414.9 321.115 414.679C320.983 414.342 320.86 414.004 320.728 413.667C319.544 410.558 318.302 407.478 317.003 404.428C300.366 365.072 275.551 330.389 244.486 303.075C244.308 302.94 244.167 302.756 244.077 302.542C243.988 302.327 243.953 302.091 243.977 301.858C244.022 301.59 244.122 301.337 244.271 301.117C244.419 300.897 244.612 300.716 244.834 300.588C245.056 300.46 245.302 300.388 245.554 300.377C245.806 300.366 246.057 300.417 246.288 300.525C246.412 300.586 246.528 300.664 246.633 300.756C259.924 312.448 272.117 325.524 283.035 339.797C293.955 354.055 303.571 369.424 311.747 385.686C313.976 390.127 316.092 394.631 318.096 399.196C318.491 400.102 318.886 401.017 319.272 401.932C320.917 405.787 322.483 409.678 323.969 413.604C323.994 413.667 324.018 413.738 324.043 413.8C324.119 413.968 324.16 414.151 324.165 414.338C324.17 414.525 324.138 414.711 324.071 414.883C324.004 415.056 323.904 415.211 323.777 415.338C323.65 415.465 323.499 415.561 323.335 415.621Z" fill="white"/>
<path d="M214.253 298.465C231.968 298.465 246.329 282.954 246.329 263.821C246.329 244.689 231.968 229.178 214.253 229.178C196.538 229.178 182.177 244.689 182.177 263.821C182.177 282.954 196.538 298.465 214.253 298.465Z" fill="#6C63FF"/>
<path d="M211.073 277.037C210.352 277.038 209.649 276.786 209.072 276.319L209.036 276.29L201.498 270.056C201.149 269.768 200.855 269.407 200.635 268.996C200.415 268.585 200.271 268.131 200.214 267.66C200.156 267.189 200.184 266.71 200.298 266.251C200.411 265.792 200.608 265.362 200.875 264.984C201.143 264.607 201.476 264.291 201.857 264.053C202.238 263.815 202.659 263.661 203.095 263.598C203.531 263.536 203.974 263.567 204.399 263.69C204.824 263.813 205.223 264.025 205.572 264.314L210.454 268.358L221.993 252.106C222.26 251.729 222.594 251.412 222.975 251.175C223.355 250.937 223.776 250.783 224.212 250.721C224.648 250.659 225.091 250.69 225.516 250.813C225.941 250.935 226.339 251.147 226.688 251.436L226.616 251.541L226.69 251.438C227.394 252.022 227.854 252.884 227.971 253.835C228.087 254.786 227.849 255.747 227.31 256.509L213.738 275.625C213.424 276.066 213.02 276.422 212.558 276.667C212.096 276.912 211.588 277.038 211.073 277.037Z" fill="white"/>
<path d="M697.021 417H0.979294C0.720062 416.999 0.47171 416.887 0.28867 416.689C0.105631 416.491 0.00283813 416.222 0.00283813 415.942C0.00283813 415.662 0.105631 415.394 0.28867 415.196C0.47171 414.997 0.720062 414.885 0.979294 414.885H697.021C697.28 414.885 697.528 414.997 697.711 415.196C697.894 415.394 697.997 415.662 697.997 415.942C697.997 416.222 697.894 416.491 697.711 416.689C697.528 416.887 697.28 416.999 697.021 417Z" fill="#3F3D56"/>
<path d="M136.155 120.758C149.3 120.758 159.956 109.249 159.956 95.051C159.956 80.8534 149.3 69.344 136.155 69.344C123.009 69.344 112.353 80.8534 112.353 95.051C112.353 109.249 123.009 120.758 136.155 120.758Z" fill="#2F2E41"/>
<path d="M117.576 81.1905C121.422 77.0363 122.202 71.143 119.317 68.0274C116.432 64.9118 110.976 65.7537 107.129 69.9078C103.283 74.062 102.504 79.9553 105.388 83.0709C108.273 86.1865 113.73 85.3446 117.576 81.1905Z" fill="#2F2E41"/>
<path d="M160.962 73.0268C162.565 68.9749 159.809 63.8193 154.807 61.5115C149.805 59.2037 144.45 60.6176 142.848 64.6695C141.245 68.7215 144.001 73.8771 149.003 76.1849C154.006 78.4926 159.36 77.0787 160.962 73.0268Z" fill="#2F2E41"/>
<path d="M202.433 243.468C203.034 242.233 203.378 240.871 203.439 239.478C203.5 238.084 203.278 236.693 202.788 235.403C202.297 234.112 201.551 232.953 200.601 232.008C199.651 231.062 198.521 230.353 197.29 229.931L162.898 151.354L147.166 163.268L185.919 236.761C185.399 239.041 185.671 241.449 186.685 243.527C187.698 245.605 189.382 247.209 191.418 248.036C193.453 248.863 195.699 248.855 197.729 248.013C199.759 247.171 201.433 245.554 202.433 243.468V243.468Z" fill="#FFB8B8"/>
<path d="M170.785 164.463L152.52 173.285C152 173.536 151.436 173.663 150.867 173.657C150.298 173.652 149.736 173.514 149.221 173.253C148.705 172.992 148.248 172.614 147.88 172.145C147.512 171.676 147.242 171.126 147.088 170.534L141.702 149.79C140.528 146.911 140.459 143.647 141.51 140.713C142.561 137.779 144.647 135.415 147.309 134.139C149.972 132.863 152.994 132.78 155.713 133.907C158.432 135.034 160.627 137.28 161.815 140.152L172.509 158.257C172.815 158.776 173.014 159.359 173.092 159.968C173.17 160.577 173.126 161.197 172.963 161.786C172.799 162.375 172.52 162.919 172.144 163.381C171.768 163.843 171.305 164.212 170.785 164.463Z" fill="#CCCCCC"/>
<path d="M86.4276 251.258C87.6858 250.943 88.8646 250.333 89.8811 249.472C90.8975 248.611 91.7268 247.52 92.3105 246.276C92.8943 245.031 93.2183 243.664 93.2597 242.269C93.3012 240.875 93.0591 239.488 92.5505 238.206L125.122 158.729L106.489 153.66L80.3317 233.377C78.3937 234.443 76.885 236.239 76.0914 238.426C75.2979 240.613 75.2746 243.038 76.026 245.242C76.7774 247.446 78.2512 249.276 80.1683 250.385C82.0854 251.494 84.3125 251.805 86.4276 251.258H86.4276Z" fill="#FFB8B8"/>
<path d="M77.5488 395.317L87.0235 399.043L104.839 361.346L90.8545 355.847L77.5488 395.317Z" fill="#FFB8B8"/>
<path d="M102.093 415.731L72.3152 404.021L76.5041 391.595L94.7767 398.781C97.828 399.98 100.313 402.44 101.685 405.619C103.057 408.798 103.204 412.435 102.093 415.731Z" fill="#2F2E41"/>
<path d="M99.9597 373.623C99.3784 373.624 98.8042 373.484 98.2787 373.216L87.39 367.645C86.4973 367.193 85.7938 366.396 85.4181 365.411C85.0423 364.426 85.0215 363.325 85.3597 362.325L116.09 270.415C116.344 269.654 116.794 268.987 117.385 268.49C117.977 267.993 118.687 267.688 119.433 267.61C120.178 267.532 120.93 267.684 121.599 268.048C122.268 268.412 122.828 268.974 123.213 269.668L139.467 298.925C139.828 299.577 140.023 300.321 140.03 301.081C140.038 301.841 139.858 302.59 139.509 303.25L103.414 371.472C103.064 372.127 102.561 372.671 101.954 373.049C101.348 373.426 100.66 373.624 99.9597 373.623Z" fill="#2F2E41"/>
<path d="M136.909 123.005C148.066 123.005 157.11 113.237 157.11 101.188C157.11 89.1385 148.066 79.3706 136.909 79.3706C125.753 79.3706 116.709 89.1385 116.709 101.188C116.709 113.237 125.753 123.005 136.909 123.005Z" fill="#FFB8B8"/>
<path d="M165.487 200.383L129.72 189.759L110.697 148.668C109.783 146.694 109.352 144.5 109.444 142.296C109.536 140.091 110.148 137.948 111.222 136.07C112.296 134.193 113.797 132.643 115.582 131.569C117.367 130.494 119.377 129.93 121.42 129.93H149.877C152.83 129.928 155.681 131.105 157.879 133.236C165.513 140.621 181.55 161.914 165.642 200.011L165.487 200.383Z" fill="#CCCCCC"/>
<path d="M120.713 172.942L102.591 163.781C102.075 163.52 101.618 163.143 101.25 162.674C100.881 162.205 100.611 161.656 100.457 161.064C100.303 160.472 100.268 159.851 100.357 159.244C100.445 158.636 100.653 158.057 100.967 157.544L111.98 139.58C113.23 136.739 115.472 134.549 118.215 133.49C120.958 132.431 123.977 132.59 126.611 133.932C129.246 135.274 131.28 137.69 132.268 140.649C133.256 143.608 133.117 146.87 131.882 149.719L126.187 170.294C126.024 170.883 125.745 171.427 125.37 171.889C124.994 172.352 124.531 172.721 124.011 172.972C123.492 173.224 122.928 173.351 122.359 173.346C121.79 173.341 121.228 173.203 120.713 172.942Z" fill="#CCCCCC"/>
<path d="M142.637 405.618H152.72L157.517 363.612L142.635 363.613L142.637 405.618Z" fill="#FFB8B8"/>
<path d="M172.167 415.729L140.477 415.731L140.476 402.507L159.922 402.506C163.169 402.506 166.284 403.899 168.58 406.379C170.876 408.858 172.166 412.222 172.167 415.729Z" fill="#2F2E41"/>
<path d="M146.444 389.611C145.538 389.613 144.658 389.276 143.955 388.659C143.251 388.042 142.765 387.182 142.581 386.223C139.682 371.474 124.629 295.927 112.881 257.014C100.927 217.422 121.285 199.389 125.487 196.176C125.935 195.835 126.29 195.371 126.518 194.833L129.571 187.579C129.887 186.83 130.396 186.195 131.038 185.75C131.679 185.305 132.425 185.068 133.187 185.068H133.212C156.1 185.216 163.794 193.008 166.04 196.352C166.371 196.85 166.598 197.42 166.705 198.022C166.812 198.624 166.797 199.244 166.66 199.839L152.178 264.369C152.088 264.769 152.068 265.183 152.118 265.592L166.526 382.757C166.595 383.32 166.56 383.892 166.422 384.441C166.285 384.989 166.047 385.502 165.724 385.95C165.401 386.398 164.998 386.772 164.539 387.051C164.081 387.329 163.576 387.506 163.053 387.571L146.909 389.582C146.755 389.602 146.6 389.611 146.444 389.611Z" fill="#2F2E41"/>
<path d="M115.683 87.4648C120.3 90.901 125.779 92.7297 131.385 92.7055C129.385 94.2032 127.108 95.2148 124.712 95.6707C132.166 97.3975 139.869 97.4443 147.341 95.808C149.002 95.5204 150.604 94.9259 152.078 94.0507C152.812 93.6077 153.452 93.0027 153.956 92.2751C154.46 91.5474 154.816 90.7134 155.002 89.8272C155.498 86.7639 153.288 83.9809 150.992 82.1052C147.475 79.2773 143.421 77.329 139.122 76.4011C134.822 75.4733 130.386 75.5891 126.133 76.7403C123.356 77.5155 120.575 78.8253 118.771 81.2338C116.967 83.6423 116.433 87.3555 118.152 89.8356L115.683 87.4648Z" fill="#2F2E41"/>
<path d="M486.487 182.099C492.392 182.099 497.178 176.929 497.178 170.551C497.178 164.174 492.392 159.003 486.487 159.003C480.582 159.003 475.795 164.174 475.795 170.551C475.795 176.929 480.582 182.099 486.487 182.099Z" fill="#6C63FF"/>
<path d="M485.427 174.956C485.186 174.957 484.952 174.873 484.76 174.717L484.748 174.707L482.235 172.63C482.118 172.533 482.02 172.413 481.946 172.276C481.873 172.139 481.825 171.988 481.805 171.83C481.786 171.673 481.795 171.513 481.833 171.36C481.871 171.207 481.936 171.063 482.026 170.937C482.115 170.812 482.226 170.706 482.353 170.627C482.481 170.547 482.621 170.496 482.767 170.475C482.912 170.455 483.06 170.465 483.202 170.506C483.344 170.548 483.476 170.619 483.593 170.716L485.22 172.063L489.066 166.646C489.156 166.52 489.267 166.415 489.394 166.336C489.521 166.256 489.661 166.205 489.806 166.184C489.952 166.164 490.099 166.174 490.241 166.215C490.382 166.256 490.515 166.327 490.632 166.423L490.608 166.458L490.632 166.423C490.867 166.618 491.02 166.906 491.059 167.222C491.098 167.539 491.019 167.86 490.839 168.114L486.315 174.486C486.21 174.633 486.076 174.752 485.922 174.833C485.768 174.915 485.598 174.957 485.427 174.956Z" fill="white"/>
<path d="M486.487 215.854C492.392 215.854 497.178 210.684 497.178 204.306C497.178 197.929 492.392 192.758 486.487 192.758C480.582 192.758 475.795 197.929 475.795 204.306C475.795 210.684 480.582 215.854 486.487 215.854Z" fill="#6C63FF"/>
<path d="M485.427 208.711C485.186 208.712 484.952 208.628 484.76 208.472L484.748 208.462L482.235 206.384C482.118 206.288 482.02 206.168 481.946 206.031C481.873 205.894 481.825 205.742 481.805 205.585C481.786 205.428 481.795 205.268 481.833 205.115C481.871 204.962 481.936 204.818 482.026 204.692C482.115 204.566 482.226 204.461 482.353 204.382C482.481 204.302 482.621 204.251 482.767 204.23C482.912 204.21 483.06 204.22 483.202 204.261C483.344 204.303 483.476 204.374 483.593 204.47L485.22 205.818L489.066 200.401C489.156 200.275 489.267 200.17 489.394 200.091C489.521 200.011 489.661 199.96 489.806 199.939C489.952 199.918 490.099 199.929 490.241 199.97C490.382 200.011 490.515 200.081 490.632 200.178L490.608 200.213L490.632 200.178C490.867 200.373 491.02 200.66 491.059 200.977C491.098 201.294 491.019 201.615 490.839 201.869L486.315 208.241C486.21 208.388 486.076 208.506 485.922 208.588C485.768 208.67 485.598 208.712 485.427 208.711Z" fill="white"/>
<path d="M492.244 254.938C498.149 254.938 502.936 249.768 502.936 243.391C502.936 237.013 498.149 231.843 492.244 231.843C486.339 231.843 481.552 237.013 481.552 243.391C481.552 249.768 486.339 254.938 492.244 254.938Z" fill="#6C63FF"/>
<path d="M491.184 247.796C490.943 247.796 490.709 247.712 490.517 247.557L490.505 247.547L487.992 245.469C487.875 245.373 487.777 245.253 487.704 245.116C487.63 244.979 487.582 244.827 487.562 244.67C487.543 244.513 487.552 244.353 487.59 244.2C487.628 244.046 487.693 243.903 487.783 243.777C487.872 243.651 487.983 243.545 488.111 243.466C488.238 243.387 488.378 243.335 488.524 243.315C488.669 243.294 488.817 243.305 488.959 243.346C489.101 243.387 489.234 243.458 489.35 243.555L490.978 244.903L494.824 239.485C494.913 239.36 495.024 239.254 495.151 239.175C495.278 239.096 495.418 239.045 495.563 239.024C495.709 239.003 495.856 239.013 495.998 239.054C496.14 239.095 496.272 239.166 496.389 239.262L496.365 239.297L496.389 239.263C496.624 239.458 496.778 239.745 496.816 240.062C496.855 240.379 496.776 240.699 496.596 240.953L492.072 247.325C491.967 247.472 491.833 247.591 491.679 247.673C491.525 247.754 491.356 247.796 491.184 247.796Z" fill="white"/>
<path d="M595.344 339.805C595.233 339.805 595.163 339.802 595.139 339.8L581.865 339.802V337.688H595.187C595.495 337.7 601.788 337.892 607.587 330.293C616.227 318.968 623.323 290.933 608.058 221.688C587.531 128.577 604.651 46.3186 612.964 15.2744C613.374 13.7385 613.447 12.1208 613.178 10.5491C612.91 8.97733 612.306 7.49467 611.415 6.21819C610.525 4.94172 609.371 3.90642 608.047 3.1941C606.722 2.48179 605.262 2.11198 603.782 2.11388H405.542C404.034 2.11606 402.549 2.50202 401.206 3.24043C399.863 3.97885 398.699 5.04892 397.811 6.36378C394.289 11.5958 389.456 21.6469 386.432 39.8211L384.506 39.4475C387.596 20.8785 392.586 10.5316 396.228 5.12105C397.298 3.5367 398.699 2.2473 400.318 1.35751C401.936 0.467723 403.726 0.00263165 405.542 5.7531e-06H603.782C605.565 -0.00184781 607.325 0.444216 608.921 1.30296C610.517 2.1617 611.907 3.40959 612.98 4.94803C614.053 6.48648 614.78 8.27332 615.103 10.1674C615.427 12.0615 615.338 14.0109 614.845 15.8617C606.574 46.7448 589.543 128.576 609.962 221.198C625.442 291.418 618 320.06 609.032 331.723C603.116 339.415 596.598 339.805 595.344 339.805Z" fill="#E6E6E6"/>
<path d="M559.625 378.383C559.514 378.383 559.444 378.38 559.42 378.378L546.146 378.38V376.266H559.468C559.778 376.276 566.069 376.47 571.868 368.871C580.508 357.546 587.604 329.511 572.339 260.266C551.812 167.155 568.932 84.8964 577.245 53.8523C577.655 52.3164 577.728 50.6987 577.459 49.127C577.191 47.5552 576.587 46.0726 575.696 44.7961C574.806 43.5196 573.653 42.4843 572.328 41.772C571.003 41.0597 569.543 40.6899 568.063 40.6918H369.823C368.315 40.694 366.83 41.0799 365.487 41.8183C364.144 42.5567 362.98 43.6268 362.092 44.9417C358.57 50.1737 353.738 60.2248 350.713 78.399L348.787 78.0254C351.877 59.4564 356.867 49.1095 360.509 43.6989C361.579 42.1146 362.98 40.8252 364.599 39.9354C366.217 39.0456 368.007 38.5805 369.823 38.5779H568.063C569.847 38.576 571.606 39.0221 573.202 39.8809C574.798 40.7396 576.188 41.9875 577.261 43.5259C578.334 45.0644 579.061 46.8512 579.384 48.7453C579.708 50.6394 579.62 52.5888 579.126 54.4396C570.855 85.3227 553.824 167.154 574.243 259.776C589.723 329.996 582.281 358.638 573.313 370.301C567.397 377.993 560.879 378.383 559.625 378.383Z" fill="#CCCCCC"/>
<path d="M538.523 298.358C518.102 205.736 535.135 123.898 543.409 93.0214C543.901 91.1706 543.989 89.2215 543.665 87.3278C543.341 85.4341 542.614 83.6476 541.541 82.1092C540.469 80.5709 539.08 79.3227 537.484 78.4633C535.888 77.6038 534.13 77.1565 532.347 77.1566H334.102C332.286 77.1585 330.497 77.6229 328.88 78.5119C327.262 79.4009 325.861 80.6896 324.791 82.2732C316.789 94.1584 300.183 133.572 318.73 242.627C328.648 300.97 328.501 340.747 325.26 366.952C323.442 381.706 320.638 392.152 318.096 399.196L317.825 399.943C317.29 401.368 317.011 402.89 317.003 404.428C316.984 406.165 317.306 407.886 317.948 409.479C318.591 411.071 319.538 412.499 320.728 413.667C321.504 414.452 322.383 415.11 323.335 415.621C324.126 416.057 324.963 416.388 325.828 416.607C326.708 416.839 327.611 416.955 328.517 416.953H523.703C523.728 416.953 523.793 416.962 523.908 416.962C525.158 416.962 531.681 416.571 537.594 408.879C546.559 397.215 554.002 368.577 538.523 298.358ZM536.146 407.449C530.348 415.052 524.057 414.857 523.752 414.848H328.517C326.954 414.848 325.415 414.433 324.034 413.642C322.653 412.851 321.473 411.706 320.597 410.309C319.825 409.1 319.308 407.725 319.079 406.278C318.85 404.832 318.916 403.349 319.272 401.932C319.366 401.521 319.487 401.117 319.634 400.724C322.537 392.667 324.689 384.317 326.058 375.799C330.697 348.484 331.56 306.335 320.654 242.245C302.248 133.998 318.524 95.18 326.37 83.5168C327.26 82.2038 328.424 81.1354 329.767 80.3978C331.11 79.6602 332.595 79.2741 334.102 79.2707H532.347C533.826 79.2696 535.285 79.6398 536.609 80.3521C537.932 81.0644 539.085 82.0992 539.975 83.375C540.865 84.6508 541.469 86.1326 541.738 87.7034C542.007 89.2742 541.934 90.891 541.525 92.4263C533.21 123.472 516.095 205.736 536.624 298.847C551.888 368.089 544.791 396.123 536.146 407.449Z" fill="#3F3D56"/>
<path d="M444.343 178.013H342.205C340.129 178.013 338.138 177.122 336.67 175.537C335.202 173.951 334.377 171.8 334.377 169.558C334.377 167.315 335.202 165.165 336.67 163.579C338.138 161.993 340.129 161.102 342.205 161.102H444.343C446.42 161.102 448.411 161.993 449.879 163.579C451.347 165.165 452.172 167.315 452.172 169.558C452.172 171.8 451.347 173.951 449.879 175.537C448.411 177.122 446.42 178.013 444.343 178.013Z" fill="#CCCCCC"/>
<path d="M444.343 214.433H342.205C340.129 214.433 338.138 213.542 336.67 211.956C335.202 210.371 334.377 208.22 334.377 205.977C334.377 203.735 335.202 201.584 336.67 199.999C338.138 198.413 340.129 197.522 342.205 197.522H444.343C446.42 197.522 448.411 198.413 449.879 199.999C451.347 201.584 452.172 203.735 452.172 205.977C452.172 208.22 451.347 210.371 449.879 211.956C448.411 213.542 446.42 214.433 444.343 214.433Z" fill="#CCCCCC"/>
<path d="M452.568 251.741H350.43C348.354 251.741 346.362 250.85 344.894 249.264C343.426 247.679 342.601 245.528 342.601 243.286C342.601 241.043 343.426 238.892 344.894 237.307C346.362 235.721 348.354 234.83 350.43 234.83H452.568C454.644 234.83 456.636 235.721 458.104 237.307C459.572 238.892 460.397 241.043 460.397 243.286C460.397 245.528 459.572 247.679 458.104 249.264C456.636 250.85 454.644 251.741 452.568 251.741Z" fill="#CCCCCC"/>
<path d="M458.325 290.826H356.187C354.111 290.826 352.12 289.935 350.652 288.349C349.183 286.763 348.359 284.613 348.359 282.37C348.359 280.128 349.183 277.977 350.652 276.391C352.12 274.806 354.111 273.915 356.187 273.915H458.325C460.401 273.915 462.393 274.806 463.861 276.391C465.329 277.977 466.154 280.128 466.154 282.37C466.154 284.613 465.329 286.763 463.861 288.349C462.393 289.935 460.401 290.826 458.325 290.826Z" fill="#CCCCCC"/>
<path d="M458.368 112.36H384.973C383.945 112.361 382.926 112.143 381.975 111.719C381.024 111.294 380.16 110.672 379.432 109.886C378.704 109.101 378.127 108.169 377.733 107.142C377.339 106.116 377.136 105.016 377.136 103.905C377.136 102.793 377.339 101.693 377.733 100.667C378.127 99.6404 378.704 98.7079 379.432 97.9226C380.16 97.1373 381.024 96.5147 381.975 96.0902C382.926 95.6658 383.945 95.448 384.973 95.4491H458.368C460.445 95.4491 462.436 96.3399 463.904 97.9256C465.372 99.5113 466.197 101.662 466.197 103.905C466.197 106.147 465.372 108.298 463.904 109.883C462.436 111.469 460.445 112.36 458.368 112.36Z" fill="#6C63FF"/>
<path d="M498.823 293.918C504.728 293.918 509.515 288.748 509.515 282.37C509.515 275.992 504.728 270.822 498.823 270.822C492.918 270.822 488.131 275.992 488.131 282.37C488.131 288.748 492.918 293.918 498.823 293.918Z" fill="#CCCCCC"/>
<path d="M463.26 329.022H361.122C359.046 329.022 357.054 328.131 355.586 326.545C354.118 324.96 353.293 322.809 353.293 320.567C353.293 318.324 354.118 316.173 355.586 314.588C357.054 313.002 359.046 312.111 361.122 312.111H463.26C465.336 312.111 467.327 313.002 468.796 314.588C470.264 316.173 471.089 318.324 471.089 320.567C471.089 322.809 470.264 324.96 468.796 326.545C467.327 328.131 465.336 329.022 463.26 329.022Z" fill="#CCCCCC"/>
<path d="M503.758 332.114C509.663 332.114 514.45 326.944 514.45 320.567C514.45 314.189 509.663 309.019 503.758 309.019C497.853 309.019 493.066 314.189 493.066 320.567C493.066 326.944 497.853 332.114 503.758 332.114Z" fill="#CCCCCC"/>
</g>
<defs>
<clipPath id="clip0_1_336">
<rect width="698" height="417" fill="white"/>
</clipPath>
</defs>
</svg>
